<svg xmlns="http://www.w3.org/2000/svg" width="1em" height="1em" viewBox="0 0 32 32"><title xmlns="">image-32</title><g fill="none"><path fill="url(#SVG8GgFid6y)" d="M3 7.5A4.5 4.5 0 0 1 7.5 3h17A4.5 4.5 0 0 1 29 7.5v17a4.5 4.5 0 0 1-4.5 4.5h-17A4.5 4.5 0 0 1 3 24.5z"/><path fill="url(#SVGW2xB2dVm)" d="M28.356 26.82A4.5 4.5 0 0 1 24.5 29h-17a4.5 4.5 0 0 1-3.856-2.18l10.588-10.588a2.5 2.5 0 0 1 3.536 0z"/><path fill="url(#SVGWln7obLQ)" d="M19 11a3 3 0 1 1 6 0a3 3 0 0 1-6 0"/><defs><linearGradient id="SVGW2xB2dVm" x1="12.469" x2="15.605" y1="15.5" y2="29.673" gradientUnits="userSpaceOnUse"><stop stop-color="#b3e0ff"/><stop offset="1" stop-color="#8cd0ff"/></linearGradient><linearGradient id="SVGWln7obLQ" x1="20.8" x2="22.992" y1="7.333" y2="15.225" gradientUnits="userSpaceOnUse"><stop stop-color="#fdfdfd"/><stop offset="1" stop-color="#b3e0ff"/></linearGradient><radialGradient id="SVG8GgFid6y" cx="0" cy="0" r="1" gradientTransform="rotate(51.687 8.393 -13.26)scale(71.8942 65.3927)" gradientUnits="userSpaceOnUse"><stop offset=".338" stop-color="#0fafff"/><stop offset=".529" stop-color="#367af2"/></radialGradient></defs></g></svg>
